<svg xmlns="http://www.w3.org/2000/svg" width="1280" height="640" viewBox="0 0 1280 640" role="img" aria-labelledby="title desc">
  <title id="title">OSS Maintainer Signal social preview</title>
  <desc id="desc">Social preview image for the oss-signal repository.</desc>
  <defs>
    <linearGradient id="bg" x1="0" y1="0" x2="1280" y2="640" gradientUnits="userSpaceOnUse">
      <stop offset="0" stop-color="#020617"/>
      <stop offset="0.45" stop-color="#0f172a"/>
      <stop offset="1" stop-color="#064e3b"/>
    </linearGradient>
    <linearGradient id="mark" x1="100" y1="95" x2="360" y2="360" gradientUnits="userSpaceOnUse">
      <stop offset="0" stop-color="#38bdf8"/>
      <stop offset="0.55" stop-color="#2563eb"/>
      <stop offset="1" stop-color="#22c55e"/>
    </linearGradient>
    <filter id="shadow" x="-20%" y="-20%" width="140%" height="140%">
      <feDropShadow dx="0" dy="22" stdDeviation="28" flood-color="#000000" flood-opacity="0.38"/>
    </filter>
  </defs>
  <rect width="1280" height="640" fill="url(#bg)"/>
  <circle cx="1080" cy="88" r="250" fill="#22c55e" opacity="0.12"/>
  <circle cx="158" cy="562" r="270" fill="#38bdf8" opacity="0.14"/>
  <path d="M80 526c240-185 478-239 713-161 177 58 314 29 420-83" fill="none" stroke="#93c5fd" stroke-width="2" opacity="0.18"/>
  <g transform="translate(92 112)" filter="url(#shadow)">
    <rect width="264" height="264" rx="60" fill="url(#mark)"/>
    <path d="M132 42l83 31v69c0 52-33 91-83 110-50-19-83-58-83-110V73l83-31z" fill="#020617" opacity="0.3"/>
    <circle cx="132" cy="146" r="53" fill="#f8fafc"/>
    <path d="M105 146l20 20 42-49" fill="none" stroke="#16a34a" stroke-width="17" stroke-linecap="round" stroke-linejoin="round"/>
    <path d="M81 92c28-25 74-25 102 0" fill="none" stroke="#e0f2fe" stroke-width="12" stroke-linecap="round" opacity="0.86"/>
  </g>
  <text x="410" y="160" fill="#93c5fd" font-family="-apple-system, BlinkMacSystemFont, Segoe UI, sans-serif" font-size="28" font-weight="800" letter-spacing="4">OSS-SIGNAL</text>
  <text x="410" y="238" fill="#f8fafc" font-family="-apple-system, BlinkMacSystemFont, Segoe UI, sans-serif" font-size="70" font-weight="850">OSS Maintainer Signal</text>
  <text x="414" y="300" fill="#cbd5e1" font-family="-apple-system, BlinkMacSystemFont, Segoe UI, sans-serif" font-size="31">A maintainer-readiness CLI and GitHub Action for OSS cleanup.</text>
  <g font-family="-apple-system, BlinkMacSystemFont, Segoe UI, sans-serif" font-size="24" font-weight="800">
    <rect x="414" y="366" width="176" height="56" rx="28" fill="#dcfce7"/>
    <text x="448" y="402" fill="#166534">100/100 A</text>
    <rect x="612" y="366" width="178" height="56" rx="28" fill="#dbeafe"/>
    <text x="646" y="402" fill="#1e40af">npm latest</text>
    <rect x="812" y="366" width="246" height="56" rx="28" fill="#e0f2fe"/>
    <text x="851" y="402" fill="#075985">SARIF + Issues</text>
  </g>
  <g transform="translate(414 478)" font-family="ui-monospace, SFMono-Regular, Menlo, Consolas, monospace" font-size="23">
    <text x="0" y="0" fill="#22c55e">$ npx oss-signal SalmonPlays/oss-signal</text>
    <text x="0" y="44" fill="#e2e8f0">score: 100/100   grade: A   source: github</text>
  </g>
</svg>
