<svg xmlns="http://www.w3.org/2000/svg" width="512" height="512" viewBox="0 0 512 512" role="img" aria-labelledby="title desc">
  <title id="title">OSS Maintainer Signal icon</title>
  <desc id="desc">A shield-shaped signal mark with a check in the center, representing maintainer-readiness verification.</desc>
  <defs>
    <linearGradient id="bg" x1="72" y1="60" x2="444" y2="452" gradientUnits="userSpaceOnUse">
      <stop offset="0" stop-color="#0ea5e9"/>
      <stop offset="0.48" stop-color="#2563eb"/>
      <stop offset="1" stop-color="#16a34a"/>
    </linearGradient>
    <linearGradient id="glow" x1="120" y1="80" x2="420" y2="420" gradientUnits="userSpaceOnUse">
      <stop offset="0" stop-color="#ffffff" stop-opacity="0.85"/>
      <stop offset="1" stop-color="#ffffff" stop-opacity="0.2"/>
    </linearGradient>
    <filter id="shadow" x="-20%" y="-20%" width="140%" height="140%">
      <feDropShadow dx="0" dy="18" stdDeviation="20" flood-color="#020617" flood-opacity="0.32"/>
    </filter>
  </defs>
  <rect width="512" height="512" rx="112" fill="#020617"/>
  <circle cx="406" cy="116" r="82" fill="#22c55e" opacity="0.18"/>
  <circle cx="120" cy="384" r="96" fill="#38bdf8" opacity="0.16"/>
  <path d="M256 62l156 58v126c0 98-62 170-156 204-94-34-156-106-156-204V120l156-58z" fill="url(#bg)" filter="url(#shadow)"/>
  <path d="M256 96l122 46v102c0 74-45 133-122 164-77-31-122-90-122-164V142l122-46z" fill="#08111f" opacity="0.26"/>
  <path d="M171 263c0-47 38-85 85-85s85 38 85 85-38 85-85 85-85-38-85-85z" fill="#f8fafc"/>
  <path d="M215 263l31 31 62-72" fill="none" stroke="#16a34a" stroke-width="28" stroke-linecap="round" stroke-linejoin="round"/>
  <path d="M178 162c22-20 49-31 78-31s56 11 78 31" fill="none" stroke="#dbeafe" stroke-width="20" stroke-linecap="round" opacity="0.9"/>
  <path d="M143 126c31-32 71-50 113-50s82 18 113 50" fill="none" stroke="url(#glow)" stroke-width="18" stroke-linecap="round" opacity="0.55"/>
</svg>
